<?xml version='1.0' encoding='utf-8'?>
<svg xmlns="http://www.w3.org/2000/svg" version="1.1" x="0px" y="0px" viewBox="0 0 500 476.783" enable-background="new 0 0 500 476.783"> <g id="Layer_1"> </g> <g id="Layer_2"> <linearGradient id="SVGID_1_" gradientUnits="userSpaceOnUse" x1="0" y1="238.3914" x2="500" y2="238.3914"> <stop offset="0" style="stop-color:#DCB45A"/> <stop offset="0.2279" style="stop-color:#A88028"/> <stop offset="0.414" style="stop-color:#C7A14E"/> <stop offset="0.586" style="stop-color:#B28416"/> <stop offset="0.7721" style="stop-color:#8D5B00"/> <stop offset="1" style="stop-color:#D0A853"/> <stop offset="1" style="stop-color:#D2AA5F"/> </linearGradient> <path fill="url(#SVGID_1_)" d="M499.984,298.451c-0.127-2.573-1.197-4.516-2.375-6.01c-2.065-2.583-4.711-3.96-7.493-4.104 c0.971-1.746,1.901-3.603,2.701-5.527c0.773-1.918,1.456-3.913,2.023-5.956c0.715-2.574,1.145-5.539,0.136-7.81 c-0.888-2.062-2.596-2.632-4.18-2.48c-3.473,0.338-6.89,2.591-9.847,5.665c-2.812,2.911-4.842,6.63-6.458,11.055 c-1.597,4.379-2.75,9.265-3.38,14.066c-3.611,2.076-7.237,4.021-10.953,5.487l37.207-64.444l-32.215-55.798l4.617-32.465 l0.096-0.674l-14.727-11.546v-18.712L415.253,96.17l-41.889-72.554l-0.341-0.59h-64.43L282.25,2.374l-17.363,6.982L249.272,0.34 L248.682,0L208.8,23.026h-84.459L92.126,78.825L61.702,91.058l-0.632,0.255l-2.635,18.526l-15.616,9.016l-0.59,0.341v46.053 L0,238.391l32.215,55.798l-4.618,32.465l-0.096,0.674l14.727,11.545v18.713l39.883,23.027L124,453.166l0.341,0.59h64.43 l26.343,20.652l17.362-6.981l15.617,9.016l0.59,0.34l39.884-23.027h84.457l32.215-55.798l30.424-12.234l0.632-0.254l2.635-18.527 l15.616-9.016l0.59-0.341v-19.811c2.403,1.259,4.908,2.257,7.457,3.117c1.035,0.353,2.34-1.625,1.911-2.998 c-1.808-5.401-4.255-10.15-7.173-14.134c-0.705-0.937-1.438-1.828-2.194-2.68v-9.547l2.347-4.065 c0.93-0.296,1.859-0.623,2.788-0.98c3.829-1.474,7.719-3.434,11.435-5.547c2.313,2.801,4.802,5.125,7.525,6.975 c2.841,1.927,5.75,3.461,9.121,3.38c3.116-0.07,6.799-1.71,9.365-5.386C499.102,303.945,500.145,301.187,499.984,298.451z M42.229,335.875l-12.198-9.563l4.098-28.81l8.101,14.031V335.875z M42.229,306.813l-7.562-13.098l1.495-10.513l6.067,10.508 V306.813z M42.229,288.99l-5.528-9.575l5.528-38.869V288.99z M42.229,223.785l-7.441,52.317l-21.772-37.711l29.213-50.599V223.785z M42.229,183.072L10.29,238.391l23.959,41.498l-1.495,10.513L2.725,238.391l39.503-68.422V183.072z M467.717,280.801 c-1.445,3.306-3.079,6.455-4.867,9.376c-1.857,2.924-3.896,5.619-6.03,8.018c-0.543,0.62-1.107,1.221-1.685,1.805v-6.291 l17.716-30.686c-0.412,2.453-0.908,4.883-1.539,7.273C470.307,273.922,469.136,277.44,467.717,280.801z M460.974,246.756 c-1.857,0.99-3.665,2.138-5.432,3.39l7.036-49.465l14.092,24.408c-1.061,2.234-1.998,4.635-2.768,7.109 c-1.086-2.556-2.539-4.744-4.309-6.379c-2.762-2.512-6.873-4.085-9.069,0.411c-1.851,3.658-1.402,9.029-0.496,12.981 c1.096,4.512,3.138,8.103,5.493,11.385c2.188,3.016,4.583,5.712,7.175,7.976l-17.561,30.416v-24.606 c1.084-1.657,2.109-3.4,3.063-5.204c1.674-3.136,3.022-6.436,4.383-9.823C463.261,247.639,462.214,246.092,460.974,246.756z M449.796,316.062c-0.908-0.702-1.838-1.356-2.789-1.958c-0.171-0.108-0.347-0.201-0.519-0.306l0.513-3.606 c0.571-0.321,1.138-0.652,1.69-1.007c1.365-0.08,2.726-0.259,4.084-0.516v2.232L449.796,316.062z M452.775,315.622v3.014 c-0.375-0.357-0.755-0.703-1.139-1.041L452.775,315.622z M449.876,304.549c-0.533,0.392-1.071,0.758-1.612,1.111 c-0.015,0.008-0.029,0.021-0.044,0.029l4.555-7.89v4.4C451.82,303.031,450.851,303.826,449.876,304.549z M448.343,300.754 l4.432-31.16v23.484L448.343,300.754z M445.18,306.233l-1.046,1.812c-1.016,0.529-2.04,1.033-3.09,1.521 c-2.284,1.074-4.688,2.25-6.997,3.676c-2.314,1.425-4.49,3.111-6.512,5.176l0.728-2.624l0.643-2.644 c2.906-11.46,5.098-23.076,6.66-34.746c2.299-0.132,4.534-0.74,6.679-1.749c2.115-1.01,4.137-2.421,6.055-4.145 c0.66-0.597,1.308-1.244,1.948-1.912L445.18,306.233z M444.289,312.496l-0.01,0.073c-0.008-0.004-0.016-0.008-0.025-0.012 L444.289,312.496z M402.176,385.438l37.573-65.078c0.246,0.693,0.507,1.372,0.795,2.029c0.543,1.243,1.161,2.417,1.836,3.533 l-0.563,3.961l-28.292,49.004L402.176,385.438z M419.841,380.847c-6.326,3.658-12.562,6.645-19.024,8.684 c1.554-0.942,3.131-1.827,4.728-2.653c1.558-0.849,3.115-1.652,4.699-2.385C413.395,383.016,416.657,381.815,419.841,380.847z M398.089,387.798l-0.23,0.133c6.052-9.97,11.559-20.298,16.174-31.015c4.274-9.881,8.047-19.976,11.163-30.265 c2.842-6.271,8.049-9.569,12.964-12.099c0.175,0.943,0.397,1.847,0.639,2.735L398.089,387.798z M436.534,270.636l0.412-3.584 c1.517-14.34,2.189-28.722,2.254-43.063c-0.02-3.536,0.012-7.076-0.053-10.608c-0.087-3.53-0.115-7.067-0.251-10.592 c4.48-1.02,8.353-3.84,11.622-7.772c0.79-0.958,1.542-1.983,2.257-3.061v60.286c-1.239,0.998-2.46,2.034-3.639,3.148 c-3.724,3.473-7.185,7.485-10.313,11.896C438.032,268.376,437.272,269.496,436.534,270.636z M424.066,140.314 c1.037,0.02,2.136,0.674,3.033,1.284c2.377,1.609,4.292,4.265,5.464,7.402l0.001,0.034c0.279,2.818,0.553,5.638,0.794,8.463 l0.33,3.716C430.061,154.572,426.839,147.595,424.066,140.314z M432.252,164.286c-0.804-0.803-1.584-1.666-2.353-2.58 c-2.147-2.543-4.396-4.913-6.013-8.085c-1.477-2.874-2.47-6.433-2.169-9.824c0.043-0.507,0.124-1.053,0.265-1.559 C424.943,149.919,428.356,157.302,432.252,164.286z M430.809,140.937l-20.146-34.894l13.821,10.835l12.01,20.802 c-0.555,1.165-1.048,2.386-1.501,3.579c-0.471,1.245-0.881,2.526-1.251,3.836C432.927,143.533,431.926,142.147,430.809,140.937z M443.698,163.261c0.008-0.01,0.016-0.02,0.024-0.031c1.067-1.469,2.026-3.062,2.819-4.83c0.293-0.654,0.527-1.341,0.737-2.042 l5.497,9.522v8.159c-0.606,0.599-1.211,1.199-1.797,1.833L443.698,163.261z M449.332,177.74c-0.176,0.207-0.362,0.398-0.535,0.608 c-3.178,3.867-6.042,8.272-8.478,13.06c-0.604,1.185-1.156,2.396-1.712,3.627l-0.383-7.442c-0.137-2.914-0.339-5.818-0.532-8.724 c-0.186-2.907-0.383-5.812-0.623-8.71c1.813-1.361,3.505-3.035,5.059-4.896L449.332,177.74z M448.015,152.914 c0.02-0.141,0.047-0.279,0.065-0.422c0.578-4.894,0.046-10.224-1.653-14.823c-0.709-1.942-1.711-3.972-3.266-4.844 c-1.921-1.078-3.704,0.116-4.97,1.887c-0.127,0.177-0.237,0.38-0.358,0.567l-8.371-14.498l23.313,18.276v22.103L448.015,152.914z M435.37,149.68c0.81-3.999,2.163-7.81,3.932-11.144c0.279-0.523,0.668-1.284,1.138-1.867c-0.939,7.382-2.38,14.603-4.353,21.558 c-0.229-2.775-0.464-5.549-0.775-8.31L435.37,149.68z M443.083,136.776c0.572,0.832,0.967,2.029,1.255,2.903 c1.309,3.944,1.665,8.31,1.138,12.422c-0.468,3.453-1.841,6.104-3.59,8.57c-1.503,2.125-3.237,4.047-5.116,5.646l-0.065-0.825 C439.71,156.372,441.869,146.69,443.083,136.776z M447.14,261.647c2.284-2.448,4.772-4.684,7.252-6.65 c-2.102,2.682-4.411,5.255-6.679,7.692c-1.144,1.219-2.299,2.407-3.465,3.562c-1.184,1.155-2.404,2.276-3.619,3.364 C442.715,266.766,444.845,264.097,447.14,261.647z M450.943,189.454c-1.822,2.813-3.939,5.244-6.475,7.113 c-0.539,0.399-1.096,0.763-1.665,1.096c1.303-1.729,2.625-3.472,3.893-5.217c2.969-4.069,6-8.217,8.891-12.383 C454.321,183.434,452.762,186.643,450.943,189.454z M455.135,187.945c0.014-0.027,0.028-0.054,0.042-0.081l5.487,9.504 l-5.529,38.872V187.945z M456.428,185.311c0.681-1.484,1.312-3.008,1.879-4.563c0.397-1.098,0.758-2.224,1.117-3.351l3.274,5.671 l-1.495,10.514L456.428,185.311z M479.654,225.503c0.405-0.789,0.936-1.897,1.578-2.609c-0.594,3.88-1.391,7.798-2.142,11.649 c-0.773,3.86-1.719,7.732-2.636,11.542c-0.185-3.166-0.537-6.297-1.055-9.352C476.424,232.722,477.843,228.946,479.654,225.503z M464.784,226.946c0.927,0.116,1.877,0.753,2.625,1.334c2.461,1.917,4.453,5.134,5.331,9.002c0.037,0.169,0.089,0.319,0.148,0.458 c0.661,4.088,1.119,8.253,1.056,12.495C470.232,243.046,467.112,235.196,464.784,226.946z M472.582,253.98 c-1.27-1.215-2.485-2.537-3.629-3.982c-2.033-2.604-4.127-5.348-5.477-8.815c-0.611-1.571-1.112-3.334-1.38-5.158 c-0.303-1.816-0.378-3.692-0.093-5.504c0.1-0.635,0.25-1.307,0.48-1.899c0.641,2.254,1.345,4.475,2.11,6.659 c0.752,2.187,1.513,4.351,2.363,6.467c0.835,2.12,1.766,4.192,2.69,6.235C470.566,250.028,471.545,252.029,472.582,253.98z M494.639,238.391l-23.227,40.231c1.966-5.326,3.42-10.971,4.26-16.731c0.088-0.648,0.175-1.292,0.262-1.937 c2.863-2.027,5.386-5.04,7.531-8.469c2.355-3.733,3.86-7.83,4.52-12.747c0.374-2.661,0.367-5.346,0.168-8.004 c-0.138-1.648-0.38-3.271-0.729-4.839L494.639,238.391z M484.434,225.003c1.248,3.917,1.573,8.658,1.06,12.966 c-0.512,3.976-1.723,7.424-3.541,10.473c-1.511,2.494-3.262,4.769-5.176,6.566c3.023-10.373,5.246-20.915,7.022-31.579 C484.063,223.941,484.273,224.524,484.434,225.003z M483.202,218.58c-1.777-0.511-3.378,0.932-4.531,2.762 c-0.248,0.399-0.476,0.839-0.713,1.259l-14.843-25.708l1.495-10.514L483.202,218.58z M455.135,140.907l12.199,9.563l-4.098,28.809 l-2.878-4.984c0.216-0.75,0.443-1.493,0.647-2.25l0.014-0.033c0.038-0.115,0.064-0.228,0.084-0.34l0.24-0.915 c0.438-1.721-0.808-3.065-1.949-2.276c-0.567,0.392-1.115,0.83-1.67,1.252l-2.589-4.485V140.907z M455.135,169.968l0.722,1.25 c-0.243,0.204-0.482,0.418-0.722,0.628V169.968z M451.575,180.591c-2.82,4.029-5.778,8.039-8.669,11.978 c3.018-5.775,6.719-10.928,10.904-15.171L451.575,180.591z M452.775,120.558v15.5l-26.476-20.756l-8.686-15.045L452.775,120.558z M421.321,111.399L407.5,100.564l-5.323-9.219l11.348,6.552L421.321,111.399z M322.972,34.298h43.544l29.214,50.6l-31.166-17.994 L322.972,34.298z M350.047,58.522l-41.957-24.224h11.057L350.047,58.522z M398.089,88.985l4.432,7.676l-24.769-19.418 L398.089,88.985z M371.661,25.386l39.505,68.424l-11.348-6.552l-31.598-54.73l-0.341-0.59h-47.916l-8.358-6.552H371.661z M316.136,31.938h-12.134l-11.349-6.552h15.125L316.136,31.938z M299.282,31.938h-84.227l16.295-6.552h56.582L299.282,31.938z M281.867,5.073l22.901,17.953h-16.202l-21.079-12.17L281.867,5.073z M283.845,23.026H237.22l27.484-11.051L283.845,23.026z M248.682,2.724l13.423,7.75l-31.214,12.551h-17.373L248.682,2.724z M209.431,25.386h15.591l-16.295,6.552h-10.645L209.431,25.386z M109.077,72.009l21.772-37.711h58.427l-31.167,17.994L109.077,72.009z M143.59,60.675l-41.954,24.222l5.528-9.575L143.59,60.675z M193.995,34.298h8.864l-29.202,11.742L193.995,34.298z M125.703,25.386h79.009l-11.349,6.552h-63.877l-23.959,41.498l-9.854,3.962 L125.703,25.386z M93.761,80.711l9.854-3.962l-6.067,10.508l-11.349,6.552L93.761,80.711z M95.188,91.344l-42.113,72.941 l2.473-17.387l28.291-49.002L95.188,91.344z M63.215,92.994l26.998-10.856l-8.101,14.031l-21.08,12.17L63.215,92.994z M60.61,111.308l19.142-11.052l-23.313,40.38L60.61,111.308z M44.589,120.558l13.424-7.75l-4.737,33.307l-8.687,15.046V120.558z M44.589,165.881l7.796-13.503l-2.473,17.387l-5.323,9.22V165.881z M44.589,183.704l4.432-7.677l-4.432,31.164V183.704z M44.589,223.952l7.595-53.403l47.091-81.564l59.862-34.562l50.049-20.125h94.183l59.866,34.564l42.449,33.278l20.397,35.328 c-2.346-0.922-4.802-0.691-6.138,2.338c-1.571,3.591-0.865,8.66,0.451,12.401c0.716,2.008,1.644,3.904,2.734,5.6 c1.112,1.722,2.398,3.166,3.674,4.68c2.427,2.865,4.737,5.62,7.609,7.58c0.285,3.431,0.508,6.871,0.732,10.31 c0.725,11.327,1.234,22.682,1.383,34.059l0.031,9.48c-0.008,3.161-0.098,6.324-0.144,9.485 c-10.395-8.506-14.644-24.415-18.644-38.965c1.999-2.463,3.635-5.452,4.898-8.673c1.432-3.754,2.149-7.743,1.838-12.039 c-0.363-4.61-1.719-9.303-4.025-12.974c-1.096-1.761-2.545-3.34-4.326-3.381c-1.708-0.039-2.951,1.506-3.763,3.254 c-1.01,2.154-1.577,4.731-2.106,7.155c-0.29,1.364-0.513,2.749-0.679,4.147c-1.624-2.025-3.58-3.57-5.717-4.493 c-3.008-1.301-7.182-1.474-8.377,2.996c-1.009,3.814,0.294,8.312,2.008,11.567c1.935,3.615,4.643,6.157,7.585,8.243 c3.253,2.301,6.669,4.145,10.274,5.285c0.959,3.67,1.987,7.34,3.076,10.934c1.051,3.592,2.3,7.123,3.66,10.521 c-5.548-4.451-12.54-5.75-19.003-5.369c-2.856,0.168-5.69,0.63-8.509,1.176c-1.194,0.231-1.072,2.256-0.252,2.921 c7.288,5.924,15.857,9.706,24.549,10.706c2.463,0.282,4.94,0.324,7.413,0.127c0.16-0.013,0.314-0.061,0.458-0.134 c0.244,0.401,0.488,0.803,0.738,1.214c2.307,3.684,5.168,6.93,8.297,9.342c0.168,0.128,0.335,0.197,0.498,0.223 c-0.137,3.155-0.219,6.311-0.403,9.466l-0.611,9.461c-1.182,15.152-3.227,30.272-6.37,45.197 c-3.207,15.158-7.478,30.141-13.184,44.598c-5.236,13.402-11.578,26.383-18.963,38.738c-1.199,2.04-2.441,4.053-3.707,6.051 l-13.991,8.078c0.149-0.819,0.297-1.638,0.445-2.448c0.193-1.156,0.386-2.305,0.576-3.445c0.395-2.294,0.827-4.57,1.297-6.828 l0.074-0.329c0.053-0.128,0.098-0.262,0.126-0.41c0.026-0.166,0.052-0.338,0.078-0.505c0.396-2.161,0.814-4.31,1.276-6.432 c0.448-2.131,0.996-4.205,1.407-6.357c0.888-4.266,1.964-8.426,2.825-12.688c2.348-0.362,4.648-1.158,6.88-2.303 c2.166-1.178,4.237-2.718,6.218-4.511c0.982-0.9,1.969-1.852,2.874-2.879c0.888-1.034,1.747-2.121,2.574-3.246 c1.64-2.256,3.229-4.637,4.46-7.151c1.659-3.273,3.229-6.638,4.448-10.135c0.519-1.413-0.708-2.521-1.734-1.813 c-8.365,5.834-16.093,13.398-22.567,21.929c-0.472,0.621-0.933,1.249-1.383,1.884c0.489-2.604,1.068-5.15,1.472-7.751 c0.396-2.604,0.777-5.19,1.124-7.755c8.691-6.561,15.794-16.792,19.26-28.456c1.517-0.618,3.016-1.464,4.46-2.482 c0.722-0.509,1.431-1.06,2.12-1.647c0.666-0.593,1.313-1.22,1.937-1.875c2.69-2.854,4.911-6.188,6.056-10.419 c0.634-2.278,1.094-4.656,1.181-7.034c0.078-2.38-0.11-4.742-0.593-6.961c-0.396-1.907-1.33-3.84-2.864-4.469 c-1.726-0.707-3.46,0.385-4.828,1.86c-2.361,2.497-4.343,5.609-5.999,8.859c-0.77-2.376-1.996-4.486-3.566-6.14 c-2.427-2.561-6.319-4.435-9.029-0.868c-1.114,1.439-1.663,3.34-1.979,5.283c-0.31,1.945-0.267,3.973-0.009,5.719 c0.319,2.007,0.813,3.831,1.492,5.556c0.686,1.728,1.561,3.358,2.554,4.942c2.041,3.203,4.098,6.103,6.669,8.632 c-2.108,7.409-5.872,14.256-10.534,19.829c-1.807,2.189-3.896,4.146-5.974,5.919c0.148-1.835,0.275-3.659,0.371-5.469 c0.096-1.81,0.047-3.656,0.02-5.459c-0.039-4.517-0.609-9.024-1.468-13.3c-0.4-2.125-1.057-4.267-1.708-6.305 c-0.687-2.052-1.413-4.018-2.333-5.946c-1.593-3.322-3.492-6.391-5.693-9.081c2.258-7.003,1.112-14.985-3.412-20.252 c-2.108-2.473-4.846-4.557-7.855-5.308c-1.536-0.385-3.256-0.233-4.458,1.042c-1.184,1.256-1.404,3.022-1.335,4.716 c0.026,3.018,0.708,6.133,1.681,9.052c-2.245-0.606-4.646-0.637-6.934-0.074c-1.622,0.399-3.247,1.016-4.474,2.195 c-1.312,1.246-1.667,3.017-1.328,4.719c0.664,3.08,3.475,5.606,6.172,7.041c2.811,1.49,5.985,2.09,9.127,1.968 c3.805-0.145,7.541-1.305,11.23-2.607c1.469,1.861,2.793,3.903,3.971,6.088c1.552,2.956,2.766,6.12,3.78,9.469 c0.961,3.327,1.566,6.776,2.03,10.348c-3.51-6.555-9.596-10.584-15.997-12.94c-2.651-0.976-5.392-1.711-8.141-2.349 c-1.009-0.229-2.154,0.991-1.51,1.99c4.929,7.562,11.267,14.183,18.917,18.793c2.183,1.31,4.459,2.451,6.805,3.389 c0.125,0.05,0.244,0.069,0.36,0.076c-0.051,3.672-0.319,7.379-0.698,11.117c-0.014,0.072-0.025,0.145-0.028,0.219 c-0.351,2.671-0.744,5.364-1.154,8.077c-0.48,2.68-1.036,5.352-1.551,8.057c-0.342,1.96-0.827,3.852-1.248,5.786 c-0.15,0.259-0.206,0.547-0.184,0.824c-0.299,1.393-0.599,2.79-0.901,4.193c-0.289,1.406-0.667,2.767-0.98,4.163 c-0.313,1.389-0.628,2.786-0.944,4.192c-0.294,1.41-0.591,2.82-0.939,4.2c-0.767-2.998-2.227-5.795-3.933-8.231 c-1.724-2.447-3.778-4.581-5.979-6.407c-2.181-1.809-4.511-3.409-6.901-4.908c-0.971-0.605-2.249,0.606-2.001,1.717 c0.492,2.277,1.176,4.572,1.866,6.769c0.691,2.197,1.508,4.361,2.443,6.471c1.872,4.219,4.228,8.234,6.922,11.759 c1.499,1.948,3.154,3.736,4.922,5.403c-0.457,2.27-0.874,4.559-1.254,6.866c-0.424,2.215-0.844,4.425-1.213,6.662l-37.734,21.786 l-50.053,20.127h-94.182l-59.862-34.562l-42.452-33.28l-47.092-81.565V223.952z M417.612,161.543 c0.362,0.408,0.679,0.9,0.921,1.301c1.854,3.045,2.964,6.73,3.348,10.501c0.356,3.612-0.152,6.93-1.284,10.144 c-0.761,2.184-1.79,4.331-2.979,6.233C417.801,180.37,417.772,170.971,417.612,161.543z M399.995,169.866 c0.845-0.073,1.758,0.187,2.524,0.446c2.843,0.958,5.373,3.371,7.008,6.54c0.095,0.187,0.223,0.334,0.367,0.447 c1.304,3.705,2.535,7.546,3.591,11.406C408.157,183.538,403.577,177.117,399.995,169.866z M410.826,190.164 c-0.952-0.5-1.891-1.048-2.816-1.649c-2.516-1.64-4.972-3.408-6.965-6.066c-1.784-2.38-3.129-5.542-3.289-8.832 c-0.027-0.615,0.01-1.285,0.162-1.883c1.749,3.521,3.708,6.83,5.859,9.907C405.955,184.725,408.314,187.575,410.826,190.164z M411.925,175.173c0.237-3.699,0.905-7.317,1.98-10.733c0.266-0.853,0.597-2.034,1.132-2.84c0.145,7.8,0.149,15.57,0.089,23.314 C414.135,181.618,413.107,178.359,411.925,175.173z M402.641,214.9c6.228-0.391,12.513,0.505,17.921,4.773l0.231,0.199 C414.816,217.733,408.771,216.092,402.641,214.9z M420.405,223.199c-5.648-0.403-11.242-2.048-16.463-4.775 C409.486,219.626,414.981,221.21,420.405,223.199z M339.258,424.489l35.195-14.152c-0.21,1.379-0.433,2.752-0.617,4.141 c-0.13,1.06-0.261,2.131-0.392,3.204c-2.372,2.888-4.88,5.66-7.315,8.494c-2.461,2.811-5.096,5.459-7.637,8.196 c-1.397,1.528-2.896,2.955-4.382,4.394c-1.267,1.231-2.525,2.471-3.774,3.719h-42.248L339.258,424.489z M303.37,442.485h-8.865 l29.207-11.744L303.37,442.485z M353.777,416.106l21.715-12.537c-0.202,1.362-0.4,2.724-0.634,4.054 c0,0.002-0.001,0.005-0.001,0.007L353.777,416.106z M357.319,439.355c1.415-1.338,2.724-2.787,4.069-4.199l4.014-4.255 c1.361-1.397,2.63-2.88,3.909-4.355l3.841-4.419c1.874-2.075,3.545-4.327,5.314-6.494c1.741-2.191,3.528-4.345,5.145-6.633 l2.436-3.324l2.241-0.901l-21.772,37.711H354.12L357.319,439.355z M376.833,413.442c0.184-1.451,0.409-2.88,0.63-4.315l3.902-1.569 C379.876,409.536,378.368,411.5,376.833,413.442z M384.049,403.934l-6.187,2.488c0.216-1.555,0.47-3.095,0.72-4.636l11.659-6.731 C388.241,398.059,386.173,401.017,384.049,403.934z M370.355,363.106c2.063,1.889,3.951,4.015,5.446,6.448 c1.458,2.412,2.536,5.137,3.052,8.268c0.065,0.396,0.105,0.798,0.151,1.201C376.601,373.286,373.796,368.049,370.355,363.106z M376.074,379.83c-3.848-4.746-6.797-10.317-8.891-16.205C370.648,368.59,373.586,373.966,376.074,379.83z M393.258,395.243 c0.147,0.057,0.3,0.094,0.448,0.146l-3.505,6.071l-1.525,0.613L393.258,395.243z M399.963,347.132 c1.259-1.356,2.515-2.709,3.767-4.058c1.26-1.37,2.532-2.753,3.7-4.196c-0.833,1.621-1.823,3.157-2.85,4.63 c-1.026,1.474-2.103,2.88-3.239,4.191c-2.283,2.618-4.982,4.772-7.836,6.388c-0.454,0.253-0.91,0.477-1.367,0.693 C394.728,352.299,397.436,349.794,399.963,347.132z M392.347,350.888c1.06-1.392,2.175-2.744,3.329-4.061 c1.095-1.344,2.238-2.648,3.424-3.912c1.186-1.264,2.418-2.485,3.683-3.667c1.211-1.203,2.462-2.363,3.749-3.475 c-1.13,1.346-2.238,2.685-3.384,3.993c-1.18,1.274-2.363,2.551-3.548,3.83c-1.185,1.259-2.351,2.511-3.547,3.732 C394.82,348.513,393.585,349.699,392.347,350.888z M402.4,277.859c0.098,1.02,0.219,2.036,0.362,3.049 c0.115,1.004,0.248,2.004,0.405,2.999c0.313,1.991,0.715,3.965,1.201,5.917c0.9,3.88,2.067,7.65,3.578,11.282 c-0.967-1.129-1.901-2.327-2.758-3.589c-1.744-2.551-3.392-5.198-4.303-8.347c-0.877-2.874-1.188-6.294-0.193-9.312 c0.324-1.045,0.847-2.193,1.744-2.608C402.396,277.435,402.379,277.636,402.4,277.859z M405.015,277.694 c0.463,0.292,0.895,0.647,1.267,0.979c1.115,0.997,2.094,2.269,2.81,3.719c0.701,1.446,1.178,3.081,1.378,4.815 c0.017,0.149,0.051,0.284,0.093,0.411c0.281,3.73,0.012,7.475-0.528,11.203C407.415,292.233,405.75,285.105,405.015,277.694z M413.165,287.115c0.756-1.666,1.65-3.26,2.563-4.801c0.904-1.542,1.902-3.012,2.985-4.4c0.658-0.842,1.613-2.153,2.604-2.48 c-0.091,0.187-0.164,0.393-0.214,0.611c-0.916,3.929-1.976,7.806-3.435,11.515c-0.708,1.859-1.442,3.692-2.252,5.479 c-0.851,1.777-1.744,3.517-2.675,5.213c0.246-1.859,0.422-3.721,0.521-5.574C413.325,290.814,413.274,288.951,413.165,287.115z M423.382,277.557c0.047,0.198,0.091,0.385,0.132,0.554c0.399,1.812,0.543,3.781,0.471,5.762c-0.104,1.975-0.47,3.955-0.983,5.809 c-0.484,1.701-1.099,3.268-1.918,4.693c-0.832,1.422-1.805,2.714-2.899,3.89c-1.467,1.573-3.058,2.988-4.756,4.12 C417.824,294.885,421.369,286.497,423.382,277.557z M367.282,279.131c0.117,0.163,0.278,0.306,0.504,0.405 c2.573,1.131,4.946,2.639,7.116,4.466c-6.411-1.109-12.772-2.511-19.078-4.146c0.621-0.841,1.741-1.267,2.682-1.57 C361.423,277.35,364.61,277.68,367.282,279.131z M366.569,266.257c1.719,2.171,3.254,4.434,4.716,6.844 c1.482,2.419,2.744,4.911,3.87,7.513c-1.186-0.889-2.425-1.692-3.718-2.396c-0.776-0.423-1.57-0.804-2.377-1.154 c-1.07-2.759-1.948-5.715-2.279-8.713C366.702,267.701,366.615,266.988,366.569,266.257z M375.838,287.067 c-4.523,1.438-9.162,2.26-13.639,0.765c-2.317-0.77-4.534-2.236-5.904-4.299c-0.191-0.288-0.386-0.619-0.544-0.971 C362.378,284.34,369.075,285.869,375.838,287.067z M374.262,272.88c-0.963-1.682-1.978-3.307-3.045-4.871 c-1.084-1.572-2.267-3.109-3.472-4.567c0.453-0.132,0.98-0.078,1.465,0.045c2.333,0.59,4.589,2.316,6.258,4.187 c1.833,2.07,3.123,4.678,3.785,7.563c0.656,2.708,0.504,5.552-0.073,8.293C377.806,279.793,376.232,276.265,374.262,272.88z M372.333,304.405c5.542,2.112,10.753,5.295,14.067,10.837l0.177,0.316C382.195,311.353,377.341,307.612,372.333,304.405z M385.162,318.253c-5.224-2.858-9.787-6.669-13.875-11.205c2.464,1.625,4.903,3.388,7.206,5.247 C380.792,314.153,383.017,316.137,385.162,318.253z M282.307,444.845l-16.292,6.551H209.43l-11.347-6.551H282.307z M132.805,409.881l41.589,32.604h-43.544l-29.213-50.599L132.805,409.881z M99.276,387.798l-4.432-7.677l24.772,19.42 L99.276,387.798z M147.322,418.263l41.953,24.222h-11.056L147.322,418.263z M44.589,297.798l42.113,72.942l-13.82-10.834 l-28.293-49.005V297.798z M44.589,315.621l23.314,40.381l-23.314-18.277V315.621z M44.589,356.225v-15.5l26.477,20.757 l8.687,15.046L44.589,356.225z M76.045,365.384l13.82,10.834l5.323,9.22l-11.348-6.552L76.045,365.384z M125.703,451.396 L86.2,382.974l11.348,6.552l31.598,54.729l0.341,0.59h47.917l8.357,6.551H125.703z M181.23,444.845h12.133l11.347,6.551h-15.123 L181.23,444.845z M215.498,471.709l-22.901-17.953h16.201l21.08,12.171L215.498,471.709z M213.517,453.756h46.628l-27.485,11.052 L213.517,453.756z M248.682,474.059l-13.425-7.751l31.216-12.552h17.374L248.682,474.059z M287.935,451.396h-15.592l16.292-6.551 h10.647L287.935,451.396z M371.661,451.396h-79.007l11.347-6.551h44.667c0.016,1.059,1.27,1.73,2.456,0.571l0.583-0.571h16.171 l23.959-41.498l9.852-3.962L371.661,451.396z M403.602,396.071l-9.852,3.962l2.316-4.012c1.3,0.247,2.639,0.361,4.017,0.319 c1.189-0.05,2.402-0.209,3.632-0.465L403.602,396.071z M401.186,392.954c-0.438,0.031-0.87,0.04-1.298,0.038 c3.364-1.058,6.766-2.311,10.186-3.767c3.324-1.513,6.67-3.228,10.026-5.147c-3.044,2.445-6.123,4.587-9.272,6.148 C407.609,391.749,404.383,392.727,401.186,392.954z M434.149,383.788l-20.625,8.293c0.45-0.249,0.901-0.496,1.346-0.764 c2.418-1.504,4.803-3.259,7.091-5.163c2.875-2.317,5.408-5.026,8.031-7.786c1.281-1.371,1.05-3.312-0.415-3.111 c-2.665,0.357-5.35,0.952-8.028,1.72l14.783-8.535L434.149,383.788z M436.754,365.475l-19.143,11.052l23.314-40.381 L436.754,365.475z M452.775,356.225l-13.424,7.75l4.737-33.308l0.74-1.282c2.348,2.875,5.049,5.208,7.946,7.034V356.225z M443.019,320.421c-0.063-0.157-0.123-0.307-0.186-0.463c3.894,4.687,7.986,9.183,12.257,13.417 C450.152,330.605,445.755,326.586,443.019,320.421z M458.156,331.31c-4.762-4.521-9.167-9.362-13.611-14.486 c2.69,1.619,5.254,3.655,7.533,6.076C454.345,325.318,456.386,328.131,458.156,331.31z M449.53,267.075 c-2.247,2.514-4.711,4.584-7.442,6.027c-0.586,0.31-1.184,0.582-1.787,0.821c2.649-2.284,5.272-4.719,7.819-7.306 c2.491-2.586,4.931-5.32,7.315-8.201C453.657,261.611,451.707,264.563,449.53,267.075z M456.75,304.018 c-0.538,0.162-1.076,0.311-1.614,0.449v-0.332c0.746-0.684,1.486-1.387,2.21-2.138c0.532-0.559,1.054-1.139,1.569-1.729 L456.75,304.018z M475.908,287.358c0.574-1.889,1.231-3.704,2.018-5.396c0.773-1.69,1.626-3.249,2.692-4.643 c2.26-2.971,4.979-5.181,7.837-6.247c0.461-0.172,0.969-0.362,1.487-0.49c-5.401,4.779-10.188,10.93-14.406,18.053 C475.66,288.211,475.784,287.786,475.908,287.358z M483.374,282.253c2.93-3.798,6.146-7.13,9.593-9.863 c0.042,0.821-0.131,1.772-0.328,2.558c-0.624,2.485-1.473,4.892-2.463,7.164c-1.009,2.277-2.23,4.435-3.468,6.4 c-3.889,2.032-7.633,4.24-11.534,6.488C477.676,290.344,480.317,286.074,483.374,282.253z M495.891,303.406 c-2.12,2.713-4.877,3.808-7.357,3.847c-2.833,0.042-5.249-1.325-7.682-2.892c-1.654-1.072-3.219-2.312-4.697-3.732 c2.889,0.608,5.901,0.433,8.921,0.184c3.918-0.316,7.99-0.753,11.543,1.182c0.039,0.021,0.08,0.031,0.12,0.046 C496.5,302.533,496.212,302.994,495.891,303.406z M485.997,296.768c-2.497,0.227-5.058,0.515-7.526,0.272l0.841-0.489 c2.435-1.405,4.907-2.708,7.312-3.966c0.15,0.061,0.311,0.08,0.478,0.035c2.741-0.733,5.518-0.075,7.721,2.044 c0.785,0.746,1.625,1.718,2.114,2.984C493.486,296.207,489.735,296.432,485.997,296.768z"/> </g> </svg>